<?xml version="1.0" encoding="utf-8"?>
<!-- Generator: Adobe Illustrator 16.0.0, SVG Export Plug-In . SVG Version: 6.00 Build 0)  -->
<!DOCTYPE svg PUBLIC "-//W3C//DTD SVG 1.1//EN" "http://www.w3.org/Graphics/SVG/1.1/DTD/svg11.dtd">
<svg version="1.1" id="Layer_1" xmlns="http://www.w3.org/2000/svg" xmlns:xlink="http://www.w3.org/1999/xlink" x="0px" y="0px"
	 width="500px" height="150.5px" viewBox="0 0 500 150.5" enable-background="new 0 0 500 150.5" xml:space="preserve">
<g>
	<path fill="#D32027" d="M40.202,39.108c-0.215,0.208-0.407,0.794-0.574,1.757c-0.167,0.963-0.652,5.441-1.453,13.432
		c-0.801,7.992-1.201,14.383-1.201,19.172c0,1.979,0.215,4.191,0.646,6.639c0.119,0.365,0.179,0.781,0.179,1.25
		c0,1.404-0.376,2.668-1.13,3.787c-0.753,1.119-1.716,1.68-2.887,1.68c-0.789,0-1.788-0.424-2.995-1.27
		c-1.208-0.847-1.931-2.285-2.169-4.313c-0.24-2.03-0.359-4.675-0.359-7.928c0-4.451,0.478-11.076,1.435-19.875
		c0.956-8.798,1.53-13.289,1.721-13.471c-0.669,0-3.347,0.195-8.033,0.586c-4.71,0.391-7.448,0.585-8.212,0.585
		c-2.463,0-4.172-0.344-5.128-1.035c-0.957-0.689-1.435-1.776-1.435-3.26c0-1.328,0.508-2.343,1.524-3.045
		c1.016-0.703,3.592-1.055,7.729-1.055c6.886,0,13.64-0.494,20.263-1.483c7.459-1.25,13.113-1.875,16.963-1.875
		c4.303,0,6.921,0.553,7.854,1.66c0.932,1.106,1.398,2.206,1.398,3.299c0,2.525-1.028,3.788-3.084,3.788
		c-0.67,0-1.746-0.078-3.228-0.234c-1.506-0.13-3.263-0.195-5.272-0.195C46.705,37.703,42.521,38.171,40.202,39.108z"/>
	<path fill="#D32027" d="M63.692,59.491v0.039c0.765-4.737,1.148-7.444,1.148-8.122c0-1.926,0.388-3.54,1.166-4.842
		c0.776-1.301,1.858-1.952,3.246-1.952c1.625,0,2.893,0.417,3.801,1.25c0.908,0.833,1.363,1.771,1.363,2.811
		c0,1.042-0.443,3.189-1.327,6.443l-0.215,0.859c-1.315,5.024-2.104,9.124-2.367,12.3c-0.263,3.177-0.395,5.74-0.395,7.691
		c0,1.589,0.251,3.709,0.753,6.364c0.072,0.469,0.107,0.857,0.107,1.172c0,0.6-0.52,1.405-1.56,2.421
		c-1.04,1.017-2.158,1.522-3.353,1.522c-3.156,0-4.734-2.604-4.734-7.811c0-4.426,0.574-9.813,1.721-16.166
		C63.286,62.068,63.501,60.74,63.692,59.491z M81.014,27.395c0,1.849-0.765,3.469-2.295,4.861c-1.53,1.393-2.857,2.089-3.981,2.089
		c-1.435,0-2.708-0.65-3.819-1.952c-1.112-1.301-1.667-2.603-1.667-3.905c0-1.875,0.549-3.391,1.649-4.549
		c1.1-1.158,2.677-1.738,4.734-1.738c1.602,0,2.899,0.514,3.891,1.542C80.518,24.771,81.014,25.989,81.014,27.395z"/>
	<path fill="#D32027" d="M112.358,79.717c-1.147-2.343-1.985-6.716-2.51-13.119c-0.526-6.664-1.698-9.996-3.515-9.996
		c-1.721,0-4.698,3.469-8.93,10.406c-4.232,6.938-6.838,12.059-7.818,15.364c-0.215,0.989-0.616,1.81-1.201,2.46
		c-0.586,0.65-1.166,0.977-1.739,0.977c-3.635,0-5.451-1.81-5.451-5.428c0-1.224,0.358-4.009,1.076-8.355
		c0.933-5.623,1.398-12.496,1.398-20.616c0-1.223,0.49-2.531,1.471-3.924c0.98-1.392,2.02-2.089,3.12-2.089
		c1.386,0,2.45,0.377,3.191,1.132c0.741,0.755,1.112,2.76,1.112,6.013c0,2.474-0.681,7.263-2.044,14.369
		c5.188-13.223,10.974-19.835,17.357-19.835c5.546,0,8.798,4.75,9.755,14.252c0.956,9.684,2.056,14.523,3.299,14.523
		c0.55,0,1.184-0.128,1.901-0.391c0.861-0.313,1.542-0.469,2.044-0.469c1.148,0,1.722,0.729,1.722,2.188
		c0,1.327-0.789,2.739-2.367,4.236s-3.563,2.245-5.953,2.245c-2.774,0-4.758-1.313-5.953-3.944H112.358L112.358,79.717z"/>
	<path fill="#D32027" d="M156.147,72.376c-6.193,9.554-12.421,14.33-18.685,14.33c-2.535,0-4.579-1.087-6.133-3.261
		c-1.554-2.174-2.331-4.938-2.331-8.297c0-6.795,2.552-13.549,7.657-20.266c5.104-6.716,10.275-10.074,15.511-10.074
		c3.013,0,5.152,0.859,6.419,2.577c1.793-8.538,2.857-13.874,3.192-16.009c0.717-3.957,1.314-6.586,1.793-7.888
		c0.478-1.301,1.207-2.31,2.188-3.026c0.98-0.716,1.829-1.074,2.546-1.074c1.22,0,2.152,0.547,2.797,1.64
		c0.645,1.093,0.968,2.474,0.968,4.139c0,0.729-0.526,2.825-1.578,6.286c-1.722,5.623-3.317,12.417-4.788,20.383
		c-1.47,7.965-2.206,14.304-2.206,19.017c0,4.504,0.909,6.754,2.726,6.754c0.933,0,1.924-0.272,2.977-0.818
		c1.052-0.521,1.793-0.781,2.223-0.781c1.171,0,1.757,0.742,1.757,2.227c0,1.795-1.189,3.586-3.568,5.369
		c-2.379,1.782-4.632,2.674-6.76,2.674c-2.295,0-4.064-1.34-5.308-4.021C156.303,79.574,155.836,76.281,156.147,72.376z
		 M152.167,52.345c-3.132,0-6.401,2.604-9.809,7.81c-3.407,5.207-5.11,9.97-5.11,14.292c0,2.523,0.861,3.787,2.582,3.787
		c2.917,0,6.396-2.824,10.436-8.476c4.041-5.648,6.061-10.113,6.061-13.393c0-0.989-0.383-1.907-1.147-2.753
		C154.414,52.769,153.41,52.345,152.167,52.345z"/>
	<path fill="#D32027" d="M211.305,71.986c0,2.707-2.092,5.94-6.276,9.704c-4.185,3.761-8.907,5.642-14.166,5.642
		c-4.041,0-7.221-1.386-9.54-4.158c-2.319-2.772-3.479-6.631-3.479-11.577c0-7.289,2.367-14.122,7.101-20.5
		c4.734-6.377,9.791-9.566,15.17-9.566c2.678,0,4.829,0.924,6.456,2.772c1.625,1.849,2.438,4.048,2.438,6.599
		c0,4.53-1.997,8.844-5.989,12.944c-3.993,4.1-9.109,6.93-15.35,8.492c-0.717,0.183-1.076,0.651-1.076,1.406
		c0,1.249,0.507,2.44,1.524,3.571c1.016,1.134,2.373,1.699,4.07,1.699c4.806,0,9.576-2.693,14.31-8.083
		c0.908-1.041,1.793-1.563,2.654-1.563C210.587,69.37,211.305,70.242,211.305,71.986z M187.241,65.075
		c3.777-0.833,7.106-2.59,9.988-5.271c2.881-2.681,4.321-5.115,4.321-7.302c0-0.859-0.221-1.582-0.664-2.167
		c-0.442-0.586-1.01-0.878-1.703-0.878c-2.08,0-4.388,1.666-6.922,4.998C189.727,57.787,188.053,61.326,187.241,65.075z"/>
	<path fill="#D32027" d="M226.224,66.051l0.61-1.25c2.893-6.326,6.007-11.46,9.342-15.404c3.335-3.944,6.593-5.916,9.772-5.916
		c2.439,0,4.429,0.729,5.972,2.187c1.541,1.458,2.313,3.189,2.313,5.193c0,1.25-0.264,2.324-0.789,3.222
		c-0.523,0.898-1.254,1.347-2.188,1.347c-1.482,0-2.833-0.664-4.052-1.992c-0.861-0.859-1.542-1.289-2.044-1.289
		c-1.793,0-4.793,3.033-9.001,9.098s-6.742,12.886-7.603,20.461c-0.263,2.187-0.849,3.715-1.757,4.588
		c-0.909,0.871-2.14,1.308-3.694,1.308c-1.649,0-2.821-1.021-3.514-3.063c-0.694-2.043-1.04-5.382-1.04-10.016
		c0-1.899,0.047-4.465,0.143-7.692c0.096-3.045,0.371-6.768,0.825-11.167c0.119-1.146,0.203-2.043,0.251-2.694
		c0.215-2.551,0.46-4.301,0.735-5.252c0.274-0.95,0.914-1.841,1.918-2.675c1.004-0.833,2.116-1.25,3.335-1.25
		c1.291,0,2.271,0.404,2.94,1.21c0.669,0.807,1.004,1.692,1.004,2.655c0,1.224-0.538,3.762-1.614,7.614
		c-0.383,1.328-0.706,2.916-0.968,4.764L226.224,66.051z"/>
	<path d="M384.38,67.729c-0.598,6.041-0.896,10.882-0.896,14.525c0,1.434-0.396,2.708-1.186,3.827
		c-0.787,1.119-1.863,1.679-3.229,1.679c-2.939,0-4.41-1.861-4.41-5.584c0-2.056,0.691-9.006,2.08-20.851
		c1.123-9.579,1.686-15.293,1.686-17.142c0-2.108-0.084-3.306-0.251-3.592c-1.555-0.859-2.329-2.408-2.329-4.646
		c0-2.187,3.237-4.093,9.719-5.721c6.479-1.626,12.024-2.44,16.641-2.44c5.403,0,9.707,1.21,12.911,3.631
		c3.203,2.421,4.806,5.688,4.806,9.8c0,5.936-2.939,11.148-8.822,15.639c-5.882,4.49-13.029,7.672-21.445,9.547
		C386.568,67.105,384.811,67.548,384.38,67.729z M387.572,38.406l-2.116,20.539c6.886-1.25,12.935-3.469,18.146-6.658
		c5.214-3.188,7.818-6.605,7.818-10.25c0-4.347-3.156-6.521-9.468-6.521C397.578,35.516,392.784,36.479,387.572,38.406z"/>
	<path d="M454.778,71.986c0,2.707-2.094,5.94-6.275,9.704c-4.185,3.761-8.906,5.642-14.166,5.642c-4.041,0-7.221-1.386-9.54-4.158
		c-2.317-2.772-3.479-6.631-3.479-11.577c0-7.289,2.365-14.122,7.102-20.5c4.733-6.377,9.79-9.566,15.17-9.566
		c2.677,0,4.829,0.924,6.455,2.772c1.626,1.849,2.438,4.048,2.438,6.599c0,4.53-1.996,8.844-5.989,12.944
		c-3.993,4.1-9.109,6.93-15.351,8.492c-0.718,0.183-1.074,0.651-1.074,1.406c0,1.249,0.508,2.44,1.522,3.571
		c1.018,1.134,2.372,1.699,4.07,1.699c4.806,0,9.575-2.693,14.309-8.083c0.909-1.041,1.794-1.563,2.654-1.563
		C454.063,69.37,454.778,70.242,454.778,71.986z M430.715,65.075c3.777-0.833,7.106-2.59,9.987-5.271
		c2.881-2.681,4.322-5.115,4.322-7.302c0-0.859-0.224-1.582-0.664-2.167c-0.442-0.586-1.012-0.878-1.703-0.878
		c-2.08,0-4.39,1.666-6.922,4.998C433.201,57.787,431.527,61.326,430.715,65.075z"/>
	<path d="M475.364,53.712c-0.215,0-0.893,2.903-2.026,8.708c-1.136,5.805-1.703,9.32-1.703,10.542c0,2.136,0.209,3.625,0.627,4.472
		c0.418,0.846,1.106,1.271,2.063,1.271c1.339,0,2.624-0.254,3.854-0.763c1.23-0.508,2.853-1.646,4.859-3.417
		c1.243-1.117,2.295-1.678,3.156-1.678c0.69,0,1.249,0.215,1.667,0.645c0.418,0.43,0.628,0.931,0.628,1.503
		c0,2.291-1.698,4.888-5.093,7.79c-3.396,2.901-6.981,4.354-10.761,4.354c-3.154,0-5.563-1.016-7.227-3.046
		c-1.662-2.03-2.492-4.944-2.492-8.746c0-3.515,1.207-10.53,3.622-21.047c-1.53,0.182-2.595,0.273-3.191,0.273h-0.754
		c-1.1,0-2.218-0.39-3.353-1.171c-1.136-0.781-1.704-2.03-1.704-3.749c0-2.187,1.136-3.28,3.407-3.28l7.675-0.313
		c1.004-3.149,2.066-7.275,3.19-12.377c0.67-3.176,2.188-4.764,4.556-4.764c1.313,0,2.343,0.436,3.085,1.308
		c0.74,0.873,1.11,1.842,1.11,2.909c0,0.417-1.018,4.438-3.05,12.065c7.604-0.729,11.775-1.093,12.519-1.093
		c1.267,0,2.104,0.202,2.511,0.605c0.406,0.404,0.609,1.178,0.609,2.323c0,2.317-1.808,3.788-5.415,4.412L475.364,53.712z"/>
</g>
<g>
	<g>
		<polygon points="308.176,70.656 279.111,45.027 308.176,19.396 337.239,45.027 		"/>
		<ellipse cx="322.698" cy="32.28" rx="20.551" ry="18.124"/>
		<ellipse cx="293.697" cy="32.28" rx="20.552" ry="18.124"/>
	</g>
	<ellipse fill="#FFFFFF" cx="327.955" cy="25.005" rx="3.877" ry="3.419"/>
	<g>
		<g>
			<g id="XMLID_2_">
				<g>
					<path fill="#D32027" d="M327.708,101.752l-0.019,0.057c0,19.678-8.729,35.6-19.516,35.6c-10.783,0-19.514-15.922-19.514-35.6
						l-0.02-0.057c11.295-2.915,19.531-12.111,19.531-23.021C308.176,89.641,316.412,98.837,327.708,101.752z"/>
				</g>
				<g>
					<path fill="none" stroke="#000000" stroke-width="3" stroke-linecap="round" stroke-miterlimit="10" d="M253.764,78.729
						c0,13.263,12.17,23.992,27.207,23.992"/>
					<path fill="none" stroke="#000000" stroke-width="3" stroke-linecap="round" stroke-miterlimit="10" d="M308.176,78.729
						c0,10.912-8.236,20.107-19.531,23.022c-2.433,0.633-5.011,0.97-7.674,0.97"/>
					<path fill="none" stroke="#000000" stroke-width="3" stroke-linecap="round" stroke-miterlimit="10" d="M308.176,78.729
						c0,10.912,8.236,20.107,19.532,23.022c2.433,0.633,5.01,0.97,7.674,0.97"/>
					<path fill="none" stroke="#000000" stroke-width="3" stroke-linecap="round" stroke-miterlimit="10" d="M362.588,78.729
						c0,13.263-12.169,23.992-27.206,23.992"/>
					<path fill="none" stroke="#000000" stroke-width="3" stroke-linecap="round" stroke-miterlimit="10" d="M288.662,101.809
						c0,19.678,8.729,35.6,19.514,35.6"/>
					<path fill="none" stroke="#000000" stroke-width="3" stroke-linecap="round" stroke-miterlimit="10" d="M327.689,101.809
						c0,19.678-8.729,35.6-19.516,35.6"/>
				</g>
			</g>
		</g>
		
			<line fill="none" stroke="#000000" stroke-width="3" stroke-linecap="round" stroke-miterlimit="10" x1="308.176" y1="78.729" x2="308.176" y2="114.078"/>
	</g>
</g>
</svg>
