<?xml version="1.0" encoding="utf-8"?>
<!-- Generator: Adobe Illustrator 16.0.0, SVG Export Plug-In . SVG Version: 6.00 Build 0)  -->
<!DOCTYPE svg PUBLIC "-//W3C//DTD SVG 1.1//EN" "http://www.w3.org/Graphics/SVG/1.1/DTD/svg11.dtd">
<svg version="1.1" id="Layer_1" xmlns="http://www.w3.org/2000/svg" xmlns:xlink="http://www.w3.org/1999/xlink" x="0px" y="0px"
	 width="24px" height="24px" viewBox="0 0 24 24" enable-background="new 0 0 24 24" xml:space="preserve">
<path d="M9.172,16.242L12,13.414l2.828,2.828l1.414-1.414L13.414,12l2.828-2.828l-1.414-1.414L12,10.586L9.172,7.758L7.758,9.172
	L10.586,12l-2.828,2.828L9.172,16.242z"/>
<path fill="#020202" d="M12,22c5.514,0,10-4.486,10-10c0-5.514-4.486-10-10-10C6.486,2,2,6.486,2,12C2,17.514,6.486,22,12,22z M12,4
	c4.411,0,8,3.589,8,8s-3.589,8-8,8s-8-3.589-8-8S7.589,4,12,4z"/>
</svg>
