<?xml version="1.0" encoding="utf-8"?>
<!-- Generator: Adobe Illustrator 16.0.0, SVG Export Plug-In . SVG Version: 6.00 Build 0)  -->
<!DOCTYPE svg PUBLIC "-//W3C//DTD SVG 1.1//EN" "http://www.w3.org/Graphics/SVG/1.1/DTD/svg11.dtd">
<svg version="1.1" id="Layer_1" xmlns="http://www.w3.org/2000/svg" xmlns:xlink="http://www.w3.org/1999/xlink" x="0px" y="0px"
	 width="200px" height="200px" viewBox="0 0 200 200" enable-background="new 0 0 200 200" xml:space="preserve">
<circle fill="#FFFFFF" stroke="#000000" stroke-miterlimit="10" cx="100.295" cy="100.294" r="100.295"/>
<path opacity="0.6" fill="none" stroke="#000000" stroke-width="3" stroke-linecap="round" stroke-miterlimit="10" d="
	M13.087,100.294c0,48.04,38.873,86.913,86.913,86.913"/>
<g>
	
		<rect x="333.375" y="39.505" transform="matrix(0.7071 0.7071 -0.7071 0.7071 152.7854 -273.607)" fill="#ED1F24" width="146.581" height="16.24"/>
	
		<rect x="333.67" y="42.174" transform="matrix(-0.7071 0.7071 -0.7071 -0.7071 730.2885 -201.9065)" fill="#ED1F24" width="146.581" height="16.24"/>
</g>
<g>
	<path fill="#5F9ED5" d="M95.869,45.693c2.435-4.932,6.417-4.932,8.852,0l11.803,23.916c2.435,4.932,8.879,9.614,14.322,10.405
		l26.392,3.835c5.443,0.791,6.674,4.579,2.735,8.418l-19.098,18.615c-3.938,3.84-6.4,11.416-5.471,16.837l4.509,26.285
		c0.93,5.421-2.293,7.763-7.161,5.203l-23.605-12.41c-4.868-2.56-12.835-2.56-17.703,0l-23.605,12.41
		c-4.868,2.56-8.091,0.218-7.161-5.203l4.509-26.285c0.93-5.421-1.532-12.997-5.471-16.837L40.617,92.268
		c-3.938-3.839-2.708-7.627,2.735-8.418l26.392-3.835c5.443-0.791,11.888-5.473,14.322-10.405L95.869,45.693z"/>
</g>
</svg>
